# xmcd CD database file generated by Grip 3.3.1
# 
# Track frame offsets:
#       150
#       20016
#       31567
#       54678
#       68177
#       80849
#       95040
#       117197
#       157877
#       167987
#       182010
# 
# Disc length: 2687 seconds
# 
# Revision: 8
# Processed by: cddbd v1.5.2PL0 Copyright (c) Steve Scherf et al.
# Submitted via: Grip 3.3.1
# 
DISCID=8d0a7d0b
DTITLE=Sonny B and Grandpa Elliott - Blues for Days
DYEAR=1900
DGENRE=Blues
TTITLE0=One Bourbon, One Scotch, One Beer
TTITLE1=I'll Play the Blues for You
TTITLE2=It Hurts Me Too
TTITLE3=Get Some Insurance
TTITLE4=King Bee
TTITLE5=Key to the Highway
TTITLE6=The Rain
TTITLE7=Backdoor Man
TTITLE8=Bad, Bad Leroy Brown
TTITLE9=Payin' the Cost
TTITLE10=A Cold Day in Hell
EXTD=
EXTT0=
EXTT1=
EXTT2=
EXTT3=
EXTT4=
EXTT5=
EXTT6=
EXTT7=
EXTT8=
EXTT9=
EXTT10=
PLAYORDER=
